<svg xmlns="http://www.w3.org/2000/svg" viewBox="0 0 320 320" width="320" height="320">
  <defs>
    <radialGradient id="g-ganbaro" cx="50%" cy="45%" r="55%">
      <stop offset="0%" stop-color="#FFE69A"/>
      <stop offset="100%" stop-color="#F5C447"/>
    </radialGradient>
  </defs>
  <g stroke="#F5C447" stroke-width="6" stroke-linecap="round" opacity="0.85">
    <line x1="160" y1="20"  x2="160" y2="50"/>
    <line x1="160" y1="270" x2="160" y2="300"/>
    <line x1="20"  y1="160" x2="50"  y2="160"/>
    <line x1="270" y1="160" x2="300" y2="160"/>
    <line x1="50"  y1="50"  x2="72"  y2="72"/>
    <line x1="248" y1="248" x2="270" y2="270"/>
    <line x1="50"  y1="270" x2="72"  y2="248"/>
    <line x1="248" y1="72"  x2="270" y2="50"/>
  </g>
  <circle cx="160" cy="160" r="110" fill="url(#g-ganbaro)" stroke="#E8B947" stroke-width="4"/>
  <circle cx="124" cy="170" r="9" fill="#FF9AB0" opacity="0.85"/>
  <circle cx="196" cy="170" r="9" fill="#FF9AB0" opacity="0.85"/>
  <path d="M132 150 l22 6" stroke="#5A3A1E" stroke-width="6" stroke-linecap="round" fill="none"/>
  <path d="M166 156 l22 -6" stroke="#5A3A1E" stroke-width="6" stroke-linecap="round" fill="none"/>
  <path d="M138 190 Q160 210 182 190" fill="none" stroke="#5A3A1E" stroke-width="6" stroke-linecap="round"/>
  <g font-family="'Noto Serif JP', 'Hiragino Mincho ProN', serif" font-weight="800" text-anchor="middle">
    <text x="160" y="262" font-size="34" fill="#9C5A1F" stroke="#FFFDF5" stroke-width="4" paint-order="stroke">がんばろ！</text>
    <text x="160" y="262" font-size="34" fill="#9C5A1F">がんばろ！</text>
  </g>
</svg>
